<?xml version="1.0" encoding="iso-8859-1"?>
<!-- Uploaded to: SVG Repo, www.svgrepo.com, Generator: SVG Repo Mixer Tools -->
<svg version="1.1" id="Layer_1" xmlns="http://www.w3.org/2000/svg" xmlns:xlink="http://www.w3.org/1999/xlink" 
	 viewBox="0 0 512 512" xml:space="preserve">
<circle style="fill:#31BAFD;" cx="256" cy="256" r="256"/>
<path style="fill:#2B9ED8;" d="M290.947,509.616C415.796,492.57,512,385.529,512,256c0-14.165-1.169-28.057-3.382-41.596
	L394.121,100.047l-267.988,207.67l-8.604,18.51l76.073,75.678l-6.513,4.748L290.947,509.616z"/>
<polygon style="fill:#E6F3FF;" points="306.855,398.222 205.145,398.222 222.096,312.889 289.904,312.889 "/>
<polygon style="fill:#CFDBE6;" points="289.904,312.889 256,312.889 256,398.222 306.855,398.222 "/>
<path style="fill:#FFFFFF;" d="M383.045,331.421h-254.09c-8.383,0-15.177-6.796-15.177-15.177V110.423
	c0-8.383,6.796-15.177,15.177-15.177h254.088c8.383,0,15.177,6.796,15.177,15.177v205.819
	C398.222,324.625,391.427,331.421,383.045,331.421z"/>
<path style="fill:#E6F3FF;" d="M383.045,95.246H256v236.175h127.043c8.383,0,15.177-6.796,15.177-15.179V110.425
	C398.222,102.041,391.427,95.246,383.045,95.246z"/>
<path style="fill:#CFDBE6;" d="M318.666,409.428H193.334c-4.665,0-8.445-3.781-8.445-8.445v-3.796c0-4.665,3.781-8.445,8.445-8.445
	h125.331c4.665,0,8.445,3.781,8.445,8.445v3.796C327.111,405.647,323.331,409.428,318.666,409.428z"/>
<path style="fill:#B8C9D9;" d="M318.666,388.741H256v20.687h62.666c4.665,0,8.445-3.781,8.445-8.445v-3.796
	C327.111,392.521,323.331,388.741,318.666,388.741z"/>
<rect x="120.673" y="104.296" style="fill:#324A5E;" width="270.653" height="162.047"/>
<rect x="256" y="104.296" style="fill:#2B3B4E;" width="135.327" height="162.047"/>
<circle style="fill:#CFDBE6;" cx="256" cy="288.754" r="9.481"/>
<path style="fill:#B8C9D9;" d="M265.481,288.754c0-5.237-4.244-9.481-9.481-9.481v18.963
	C261.237,298.236,265.481,293.991,265.481,288.754z"/>
<rect x="348.436" y="142.222" style="fill:#FFD15D;" width="21.333" height="85.333"/>
<rect x="316.44" y="163.547" style="fill:#FED8B2;" width="21.333" height="63.991"/>
<rect x="284.444" y="184.889" style="fill:#F9B54C;" width="21.333" height="42.667"/>
</svg>